<?xml version="1.0" standalone="yes"?>
<svg width="263" height="70">
<path style="stroke:#fefefe; fill:none;" d="M38 54L42 60L42.4591 53.6265L33 49.7068L10 27C19.8303 21.551 34.0792 24 45 24C64.6696 24 84.2685 25.4015 104 25.1389C115.516 24.9856 129.925 22.7264 141 26C136.268 30.7323 121.441 41.0669 121.188 48C120.998 53.2207 135.36 69.0162 140.129 69.8519C164.476 74.1177 193.245 70 218 70C225.854 70 240.615 72.8742 247.682 69.3966C251.663 67.4375 249.304 60.448 251.028 57C256.868 45.3194 265.413 41.9295 261 27L240.001 47L233.466 57L244 70M173 52L167.996 44L149 25C166.289 19.8895 188.237 25.0648 206 25.1505C221.684 25.2261 241.96 21.5543 257 26C251.086 31.9141 230.826 46.4074 233 55M170 69C165.759 67.2661 158.04 61.3214 158.534 56C159.006 50.9128 164.553 46.3913 161.422 41C158.466 35.9104 148.407 31.207 149 25M200 25L175 52M103 26C103 31.8287 106.122 51.4744 115 50M141 26L147 26M206 26C205.991 38.0356 197.031 43.9685 189 52L184 47C184.291 54.5062 181.088 64.2679 186 70M226 26C226 35.6552 224.04 45.472 231 53M231 26L231 50M257 26L259 26M1 70C11.9888 70 19.7394 71.2762 27.9992 62.9992C30.2254 60.7685 34.4567 57.6207 33.0787 54C29.6417 44.9694 9.05595 36.8769 10 27M68 52C64.6613 52.5612 55.4963 41.5996 55.9213 38C56.4153 33.8155 62.2104 29.7899 65 27L90 52L103 38M1 34L8 28M138 31L139.028 44L145.508 55L137 67M206 36C210.163 40.1626 223.427 49.4079 222.11 56C221.05 61.3024 213.659 66.341 210 70M206 38L222 55M55 40L44 52M205 40L206 70M80 42C72.6073 51.697 72.7524 64.517 86 69.3966C90.6318 71.1027 97.1242 70 102 70L137 70M184 43L184 47M138 44L129 57M164 44L173 52M108 47L110 70M97 48L92 70"/>
<path style="stroke:#3c2536; fill:none;" d="M172 49L175 50M36 49L40 49"/>
<path style="stroke:#fefefe; fill:none;" d="M120 49L117 52M183 49L179 63M225 49L223 51M62 50L68 55M86 50L92 56"/>
<path style="stroke:#3c2536; fill:none;" d="M88 52L91 52M116 50C112.649 55.0769 112.411 59.0095 116 64M178 50C182.838 54.2692 183.004 59.8317 178 64"/>
<path style="stroke:#fefefe; fill:none;" d="M179 51L181 51"/>
<path style="stroke:#3c2536; fill:none;" d="M187 52L190 52"/>
<path style="stroke:#fefefe; fill:none;" d="M222 50L223 51"/>
<path style="stroke:#3c2536; fill:none;" d="M223 50C219.802 54.8496 219.802 58.1504 223 63M226 54C225.501 57.3142 226.059 58.3799 229 60L228 51L229 50L230 50M232 50C235.698 54.9057 235.698 58.0943 232 63M102 51L102 61M124 60C118.216 58.0785 120.931 50.2233 126 53M154 51C154.252 55.2756 154.224 59.8 149 59L154 51"/>
<path style="stroke:#fefefe; fill:none;" d="M61 52L68 66L73 59"/>
<path style="stroke:#3c2536; fill:none;" d="M69 57L69 52L70 60M83 52L85 54"/>
<path style="stroke:#fefefe; fill:none;" d="M117 52C116.068 60.8252 119.987 63.9991 126 70"/>
<path style="stroke:#3c2536; fill:none;" d="M167 52L169 54"/>
<path style="stroke:#fefefe; fill:none;" d="M171 52L168 57L168 57"/>
<path style="stroke:#3c2536; fill:none;" d="M174 52L175 54"/>
<path style="stroke:#fefefe; fill:none;" d="M187 53L204 68M76 53L88 70M87 53L86 66M153 53L157 56M160 53L170 68L175 59L176 59L177 59"/>
<path style="stroke:#3c2536; fill:none;" d="M34 55L37 56L40 55M47 54L56 54"/>
<path style="stroke:#fefefe; fill:none;" d="M61 54C53.657 73.3001 38.6536 70 21 70"/>
<path style="stroke:#3c2536; fill:none;" d="M82 55L84 60M89 55L91 59M151 55L153 55"/>
<path style="stroke:#fefefe; fill:none;" d="M154 55L151 58"/>
<path style="stroke:#3c2536; fill:none;" d="M166 55L168 60M188 55L184 63"/>
<path style="stroke:#fefefe; fill:none;" d="M45 56L59 56M92 56C90.9385 60.1777 93.1139 61.9856 96 65"/>
<path style="stroke:#3c2536; fill:none;" d="M97 56L106 56M133 56L142 56M36 57L36 59M47 57L56 57"/>
<path style="stroke:#fefefe; fill:none;" d="M84 57L86 57M171 57L173 59"/>
<path style="stroke:#3c2536; fill:none;" d="M65 58L65 59M75 58C77.1008 60.4704 77.1452 61.5728 75 64L75 58"/>
<path style="stroke:#fefefe; fill:none;" d="M158 58L148 70"/>
<path style="stroke:#3c2536; fill:none;" d="M159 58C161.101 60.4704 161.145 61.5728 159 64L159 58"/>
<path style="stroke:#fefefe; fill:none;" d="M222 58L227 58M233 59C232.672 63.8742 236.697 66.6919 240 70M42 60L49 70M223 62L228 70M76 62C67.5499 70.4202 61.3602 70 50 70M115 64L116 63M160 62L152 70M231 62L228 65M222 63L214 70M114 64L109 69M68 66L64 70M0 70L1 70M68 70L85 70"/>
</svg>
